0
SECTION
2
HEADER
9
$ACADVER
1
AC1009
0
ENDSEC
0
SECTION
2
TABLES
0
TABLE
2
LTYPE
70
2
0
LTYPE
2
CONTINUOUS
70
0
3
Solid line
72
65
73
0
40
0
0
LTYPE
2
QC_DASHED
70
0
3
__ __ __
72
65
73
2
40
300
49
200
49
-100
0
ENDTAB
0
TABLE
2
LAYER
70
8
0
LAYER
2
QC_CRITICAL
70
0
62
1
6
CONTINUOUS
0
LAYER
2
QC_MAJOR
70
0
62
30
6
CONTINUOUS
0
LAYER
2
QC_MINOR
70
0
62
2
6
CONTINUOUS
0
LAYER
2
QC_INFO
70
0
62
4
6
CONTINUOUS
0
LAYER
2
QC_LABELS
70
0
62
7
6
CONTINUOUS
0
LAYER
2
QC_REVIT_WALLS
70
0
62
5
6
CONTINUOUS
0
LAYER
2
QC_REVIT_COLUMNS
70
0
62
5
6
CONTINUOUS
0
LAYER
2
QC_REVIT_OPENINGS
70
0
62
150
6
CONTINUOUS
0
ENDTAB
0
ENDSEC
0
SECTION
2
ENTITIES
0
POLYLINE
8
QC_CRITICAL
66
1
10
0
20
0
30
0
70
1
40
25
41
25
0
VERTEX
8
QC_CRITICAL
10
8913.75
20
6000
30
0
42
0.45
0
VERTEX
8
QC_CRITICAL
10
8812.458344
20
6541.862499
30
0
42
0.45
0
VERTEX
8
QC_CRITICAL
10
8522.263376
20
7010.543465
30
0
42
0.45
0
VERTEX
8
QC_CRITICAL
10
8082.357534
20
7342.744937
30
0
42
0.45
0
VERTEX
8
QC_CRITICAL
10
7552.152539
20
7493.601264
30
0
42
0.45
0
VERTEX
8
QC_CRITICAL
10
7003.255515
20
7442.738465
30
0
42
0.45
0
VERTEX
8
QC_CRITICAL
10
6509.798045
20
7197.025841
30
0
42
0.45
0
VERTEX
8
QC_CRITICAL
10
6138.424296
20
6789.648244
30
0
42
0.45
0
VERTEX
8
QC_CRITICAL
10
5939.29035
20
6275.624277
30
0
42
0.45
0
VERTEX
8
QC_CRITICAL
10
5939.29035
20
5724.375723
30
0
42
0.45
0
VERTEX
8
QC_CRITICAL
10
6138.424296
20
5210.351756
30
0
42
0.45
0
VERTEX
8
QC_CRITICAL
10
6509.798045
20
4802.974159
30
0
42
0.45
0
VERTEX
8
QC_CRITICAL
10
7003.255515
20
4557.261535
30
0
42
0.45
0
VERTEX
8
QC_CRITICAL
10
7552.152539
20
4506.398736
30
0
42
0.45
0
VERTEX
8
QC_CRITICAL
10
8082.357534
20
4657.255063
30
0
42
0.45
0
VERTEX
8
QC_CRITICAL
10
8522.263376
20
4989.456535
30
0
42
0.45
0
VERTEX
8
QC_CRITICAL
10
8812.458344
20
5458.137501
30
0
42
0.45
0
SEQEND
8
QC_CRITICAL
0
POLYLINE
8
QC_CRITICAL
66
1
10
0
20
0
30
0
70
0
40
40
41
40
0
VERTEX
8
QC_CRITICAL
10
5057.5
20
6000
30
0
0
VERTEX
8
QC_CRITICAL
10
9770
20
6000
30
0
0
SEQEND
8
QC_CRITICAL
0
TEXT
8
QC_LABELS
10
8538.75
20
7125
30
0
40
180
1
L02-WAL-002 [Critical]
0
TEXT
8
QC_CRITICAL
10
8538.75
20
6837
30
0
40
144
1
Wall 115 mm thick, 4713 mm long not modelled in Revit
0
TEXT
8
QC_CRITICAL
10
8538.75
20
6585
30
0
40
126
1
CAD: 115 mm x 4713 mm | Revit: -
0
POLYLINE
8
QC_MAJOR
66
1
10
0
20
0
30
0
70
1
40
25
41
25
0
VERTEX
8
QC_MAJOR
10
7959.561614
20
2000.294093
30
0
42
0.45
0
VERTEX
8
QC_MAJOR
10
7932.550506
20
2144.79076
30
0
42
0.45
0
VERTEX
8
QC_MAJOR
10
7855.165181
20
2269.772351
30
0
42
0.45
0
VERTEX
8
QC_MAJOR
10
7737.856956
20
2358.35941
30
0
42
0.45
0
VERTEX
8
QC_MAJOR
10
7596.468958
20
2398.587764
30
0
42
0.45
0
VERTEX
8
QC_MAJOR
10
7450.096418
20
2385.024351
30
0
42
0.45
0
VERTEX
8
QC_MAJOR
10
7318.507759
20
2319.500984
30
0
42
0.45
0
VERTEX
8
QC_MAJOR
10
7219.47476
20
2210.866959
30
0
42
0.45
0
VERTEX
8
QC_MAJOR
10
7166.372374
20
2073.793901
30
0
42
0.45
0
VERTEX
8
QC_MAJOR
10
7166.372374
20
1926.794286
30
0
42
0.45
0
VERTEX
8
QC_MAJOR
10
7219.47476
20
1789.721228
30
0
42
0.45
0
VERTEX
8
QC_MAJOR
10
7318.507759
20
1681.087202
30
0
42
0.45
0
VERTEX
8
QC_MAJOR
10
7450.096418
20
1615.563836
30
0
42
0.45
0
VERTEX
8
QC_MAJOR
10
7596.468958
20
1602.000423
30
0
42
0.45
0
VERTEX
8
QC_MAJOR
10
7737.856956
20
1642.228777
30
0
42
0.45
0
VERTEX
8
QC_MAJOR
10
7855.165181
20
1730.815836
30
0
42
0.45
0
VERTEX
8
QC_MAJOR
10
7932.550506
20
1855.797427
30
0
42
0.45
0
SEQEND
8
QC_MAJOR
0
POLYLINE
8
QC_MAJOR
66
1
10
0
20
0
30
0
70
0
40
40
41
40
0
VERTEX
8
QC_MAJOR
10
7500
20
2000
30
0
0
VERTEX
8
QC_MAJOR
10
7559.561614
20
2000.294093
30
0
0
SEQEND
8
QC_MAJOR
0
TEXT
8
QC_LABELS
10
7859.561614
20
2300.294093
30
0
40
180
1
L02-COL-001 [Major]
0
TEXT
8
QC_MAJOR
10
7859.561614
20
2012.294093
30
0
40
144
1
Column shifted 60 mm
0
POLYLINE
8
QC_MAJOR
66
1
10
0
20
0
30
0
70
1
40
25
41
25
0
VERTEX
8
QC_MAJOR
10
5629.611934
20
1450.059927
30
0
42
0.45
0
VERTEX
8
QC_MAJOR
10
5587.069439
20
1677.642177
30
0
42
0.45
0
VERTEX
8
QC_MAJOR
10
5465.187552
20
1874.488183
30
0
42
0.45
0
VERTEX
8
QC_MAJOR
10
5280.427099
20
2014.012801
30
0
42
0.45
0
VERTEX
8
QC_MAJOR
10
5057.741001
20
2077.372458
30
0
42
0.45
0
VERTEX
8
QC_MAJOR
10
4827.204251
20
2056.010082
30
0
42
0.45
0
VERTEX
8
QC_MAJOR
10
4619.952113
20
1952.81078
30
0
42
0.45
0
VERTEX
8
QC_MAJOR
10
4463.975139
20
1781.71219
30
0
42
0.45
0
VERTEX
8
QC_MAJOR
10
4380.338882
20
1565.822123
30
0
42
0.45
0
VERTEX
8
QC_MAJOR
10
4380.338882
20
1334.297731
30
0
42
0.45
0
VERTEX
8
QC_MAJOR
10
4463.975139
20
1118.407664
30
0
42
0.45
0
VERTEX
8
QC_MAJOR
10
4619.952113
20
947.309074
30
0
42
0.45
0
VERTEX
8
QC_MAJOR
10
4827.204251
20
844.109772
30
0
42
0.45
0
VERTEX
8
QC_MAJOR
10
5057.741001
20
822.747396
30
0
42
0.45
0
VERTEX
8
QC_MAJOR
10
5280.427099
20
886.107053
30
0
42
0.45
0
VERTEX
8
QC_MAJOR
10
5465.187552
20
1025.631672
30
0
42
0.45
0
VERTEX
8
QC_MAJOR
10
5587.069439
20
1222.477677
30
0
42
0.45
0
SEQEND
8
QC_MAJOR
0
TEXT
8
QC_LABELS
10
5472.111934
20
1922.559927
30
0
40
180
1
L02-DR-001 [Major]
0
TEXT
8
QC_MAJOR
10
5472.111934
20
1634.559927
30
0
40
144
1
Door width: CAD 900 mm vs Revit 1000 mm
0
TEXT
8
QC_MAJOR
10
5472.111934
20
1382.559927
30
0
40
126
1
CAD: 900 mm | Revit: 1000 mm - Single 1000
0
POLYLINE
8
QC_MAJOR
66
1
10
0
20
0
30
0
70
1
40
25
41
25
0
VERTEX
8
QC_MAJOR
10
3086.25
20
4000
30
0
42
0.45
0
VERTEX
8
QC_MAJOR
10
3052.486115
20
4180.620833
30
0
42
0.45
0
VERTEX
8
QC_MAJOR
10
2955.754459
20
4336.847822
30
0
42
0.45
0
VERTEX
8
QC_MAJOR
10
2809.119178
20
4447.581646
30
0
42
0.45
0
VERTEX
8
QC_MAJOR
10
2632.38418
20
4497.867088
30
0
42
0.45
0
VERTEX
8
QC_MAJOR
10
2449.418505
20
4480.912822
30
0
42
0.45
0
VERTEX
8
QC_MAJOR
10
2284.932682
20
4399.008614
30
0
42
0.45
0
VERTEX
8
QC_MAJOR
10
2161.141432
20
4263.216081
30
0
42
0.45
0
VERTEX
8
QC_MAJOR
10
2094.76345
20
4091.874759
30
0
42
0.45
0
VERTEX
8
QC_MAJOR
10
2094.76345
20
3908.125241
30
0
42
0.45
0
VERTEX
8
QC_MAJOR
10
2161.141432
20
3736.783919
30
0
42
0.45
0
VERTEX
8
QC_MAJOR
10
2284.932682
20
3600.991386
30
0
42
0.45
0
VERTEX
8
QC_MAJOR
10
2449.418505
20
3519.087178
30
0
42
0.45
0
VERTEX
8
QC_MAJOR
10
2632.38418
20
3502.132912
30
0
42
0.45
0
VERTEX
8
QC_MAJOR
10
2809.119178
20
3552.418354
30
0
42
0.45
0
VERTEX
8
QC_MAJOR
10
2955.754459
20
3663.152178
30
0
42
0.45
0
VERTEX
8
QC_MAJOR
10
3052.486115
20
3819.379167
30
0
42
0.45
0
SEQEND
8
QC_MAJOR
0
POLYLINE
8
QC_MAJOR
66
1
10
0
20
0
30
0
70
0
40
40
41
40
0
VERTEX
8
QC_MAJOR
10
230
20
4000
30
0
0
VERTEX
8
QC_MAJOR
10
4942.5
20
4000
30
0
0
SEQEND
8
QC_MAJOR
0
TEXT
8
QC_LABELS
10
2961.25
20
4375
30
0
40
180
1
L02-WAL-001 [Major]
0
TEXT
8
QC_MAJOR
10
2961.25
20
4087
30
0
40
144
1
Wall thickness: CAD 230 mm vs Revit 200 mm
0
TEXT
8
QC_MAJOR
10
2961.25
20
3835
30
0
40
126
1
CAD: 230 mm drawn, note "230 THK. BRICK WALL" | Revit: 200 mm - Brick 230
0
POLYLINE
8
QC_MAJOR
66
1
10
0
20
0
30
0
70
1
40
25
41
25
0
VERTEX
8
QC_MAJOR
10
8942.102091
20
1557.788607
30
0
42
0.45
0
VERTEX
8
QC_MAJOR
10
8844.693282
20
2078.87971
30
0
42
0.45
0
VERTEX
8
QC_MAJOR
10
8565.622454
20
2529.594573
30
0
42
0.45
0
VERTEX
8
QC_MAJOR
10
8142.579669
20
2849.061655
30
0
42
0.45
0
VERTEX
8
QC_MAJOR
10
7632.699199
20
2994.135156
30
0
42
0.45
0
VERTEX
8
QC_MAJOR
10
7104.843228
20
2945.222097
30
0
42
0.45
0
VERTEX
8
QC_MAJOR
10
6630.301628
20
2708.928457
30
0
42
0.45
0
VERTEX
8
QC_MAJOR
10
6273.163872
20
2317.167002
30
0
42
0.45
0
VERTEX
8
QC_MAJOR
10
6081.663394
20
1822.847286
30
0
42
0.45
0
VERTEX
8
QC_MAJOR
10
6081.663394
20
1292.729927
30
0
42
0.45
0
VERTEX
8
QC_MAJOR
10
6273.163872
20
798.410212
30
0
42
0.45
0
VERTEX
8
QC_MAJOR
10
6630.301628
20
406.648757
30
0
42
0.45
0
VERTEX
8
QC_MAJOR
10
7104.843228
20
170.355117
30
0
42
0.45
0
VERTEX
8
QC_MAJOR
10
7632.699199
20
121.442058
30
0
42
0.45
0
VERTEX
8
QC_MAJOR
10
8142.579669
20
266.515559
30
0
42
0.45
0
VERTEX
8
QC_MAJOR
10
8565.622454
20
585.982641
30
0
42
0.45
0
VERTEX
8
QC_MAJOR
10
8844.693282
20
1036.697503
30
0
42
0.45
0
SEQEND
8
QC_MAJOR
0
POLYLINE
8
QC_MAJOR
6
QC_DASHED
66
1
10
0
20
0
30
0
70
0
40
40
41
40
0
VERTEX
8
QC_MAJOR
10
7499.734039
20
115.288613
30
0
0
VERTEX
8
QC_MAJOR
10
7499.470142
20
3000.288601
30
0
0
SEQEND
8
QC_MAJOR
0
TEXT
8
QC_LABELS
10
8581.477091
20
2639.663607
30
0
40
180
1
L02-WAL-003 [Major]
0
TEXT
8
QC_MAJOR
10
8581.477091
20
2351.663607
30
0
40
144
1
Revit wall 'Brick 115' (2885 mm) not in CAD
0
TEXT
8
QC_MAJOR
10
8581.477091
20
2099.663607
30
0
40
126
1
CAD: - | Revit: Brick 115, 2885 mm
0
POLYLINE
8
QC_MAJOR
66
1
10
0
20
0
30
0
70
1
40
25
41
25
0
VERTEX
8
QC_MAJOR
10
8440
20
115
30
0
42
0.45
0
VERTEX
8
QC_MAJOR
10
8383.276673
20
418.443
30
0
42
0.45
0
VERTEX
8
QC_MAJOR
10
8220.76749
20
680.904341
30
0
42
0.45
0
VERTEX
8
QC_MAJOR
10
7974.420219
20
866.937165
30
0
42
0.45
0
VERTEX
8
QC_MAJOR
10
7677.505422
20
951.416708
30
0
42
0.45
0
VERTEX
8
QC_MAJOR
10
7370.123088
20
922.93354
30
0
42
0.45
0
VERTEX
8
QC_MAJOR
10
7093.786905
20
785.334471
30
0
42
0.45
0
VERTEX
8
QC_MAJOR
10
6885.817606
20
557.203017
30
0
42
0.45
0
VERTEX
8
QC_MAJOR
10
6774.302596
20
269.349595
30
0
42
0.45
0
VERTEX
8
QC_MAJOR
10
6774.302596
20
-39.349595
30
0
42
0.45
0
VERTEX
8
QC_MAJOR
10
6885.817606
20
-327.203017
30
0
42
0.45
0
VERTEX
8
QC_MAJOR
10
7093.786905
20
-555.334471
30
0
42
0.45
0
VERTEX
8
QC_MAJOR
10
7370.123088
20
-692.93354
30
0
42
0.45
0
VERTEX
8
QC_MAJOR
10
7677.505422
20
-721.416708
30
0
42
0.45
0
VERTEX
8
QC_MAJOR
10
7974.420219
20
-636.937165
30
0
42
0.45
0
VERTEX
8
QC_MAJOR
10
8220.76749
20
-450.904341
30
0
42
0.45
0
VERTEX
8
QC_MAJOR
10
8383.276673
20
-188.443
30
0
42
0.45
0
SEQEND
8
QC_MAJOR
0
TEXT
8
QC_LABELS
10
8230
20
745
30
0
40
180
1
L02-WIN-001 [Major]
0
TEXT
8
QC_MAJOR
10
8230
20
457
30
0
40
144
1
Window W1 (1200 mm) missing in Revit
0
TEXT
8
QC_MAJOR
10
8230
20
205
30
0
40
126
1
CAD: W1 1200 mm | Revit: -
0
POLYLINE
8
QC_MINOR
66
1
10
0
20
0
30
0
70
1
40
25
41
25
0
VERTEX
8
QC_MINOR
10
1450
20
4000
30
0
42
0.45
0
VERTEX
8
QC_MINOR
10
1419.612503
20
4162.55875
30
0
42
0.45
0
VERTEX
8
QC_MINOR
10
1332.554013
20
4303.16304
30
0
42
0.45
0
VERTEX
8
QC_MINOR
10
1200.58226
20
4402.823481
30
0
42
0.45
0
VERTEX
8
QC_MINOR
10
1041.520762
20
4448.080379
30
0
42
0.45
0
VERTEX
8
QC_MINOR
10
876.851654
20
4432.821539
30
0
42
0.45
0
VERTEX
8
QC_MINOR
10
728.814414
20
4359.107752
30
0
42
0.45
0
VERTEX
8
QC_MINOR
10
617.402289
20
4236.894473
30
0
42
0.45
0
VERTEX
8
QC_MINOR
10
557.662105
20
4082.687283
30
0
42
0.45
0
VERTEX
8
QC_MINOR
10
557.662105
20
3917.312717
30
0
42
0.45
0
VERTEX
8
QC_MINOR
10
617.402289
20
3763.105527
30
0
42
0.45
0
VERTEX
8
QC_MINOR
10
728.814414
20
3640.892248
30
0
42
0.45
0
VERTEX
8
QC_MINOR
10
876.851654
20
3567.178461
30
0
42
0.45
0
VERTEX
8
QC_MINOR
10
1041.520762
20
3551.919621
30
0
42
0.45
0
VERTEX
8
QC_MINOR
10
1200.58226
20
3597.176519
30
0
42
0.45
0
VERTEX
8
QC_MINOR
10
1332.554013
20
3696.83696
30
0
42
0.45
0
VERTEX
8
QC_MINOR
10
1419.612503
20
3837.44125
30
0
42
0.45
0
SEQEND
8
QC_MINOR
0
POLYLINE
8
QC_MINOR
66
1
10
0
20
0
30
0
70
0
40
40
41
40
0
VERTEX
8
QC_MINOR
10
1000
20
3885
30
0
0
VERTEX
8
QC_MINOR
10
1000
20
4115
30
0
0
SEQEND
8
QC_MINOR
0
TEXT
8
QC_LABELS
10
1337.5
20
4337.5
30
0
40
180
1
L02-DIM-001 [Minor]
0
TEXT
8
QC_MINOR
10
1337.5
20
4049.5
30
0
40
144
1
Dimension 230 mm in CAD, 200 mm in Revit
0
TEXT
8
QC_MINOR
10
1337.5
20
3797.5
30
0
40
126
1
CAD: 230 mm | Revit: 200 mm
0
POLYLINE
8
QC_MINOR
66
1
10
0
20
0
30
0
70
1
40
25
41
25
0
VERTEX
8
QC_MINOR
10
2956.878691
20
3999.836496
30
0
42
0.45
0
VERTEX
8
QC_MINOR
10
2929.867582
20
4144.333162
30
0
42
0.45
0
VERTEX
8
QC_MINOR
10
2852.482258
20
4269.314753
30
0
42
0.45
0
VERTEX
8
QC_MINOR
10
2735.174033
20
4357.901812
30
0
42
0.45
0
VERTEX
8
QC_MINOR
10
2593.786034
20
4398.130166
30
0
42
0.45
0
VERTEX
8
QC_MINOR
10
2447.413495
20
4384.566753
30
0
42
0.45
0
VERTEX
8
QC_MINOR
10
2315.824836
20
4319.043387
30
0
42
0.45
0
VERTEX
8
QC_MINOR
10
2216.791836
20
4210.409361
30
0
42
0.45
0
VERTEX
8
QC_MINOR
10
2163.689451
20
4073.336303
30
0
42
0.45
0
VERTEX
8
QC_MINOR
10
2163.689451
20
3926.336688
30
0
42
0.45
0
VERTEX
8
QC_MINOR
10
2216.791836
20
3789.26363
30
0
42
0.45
0
VERTEX
8
QC_MINOR
10
2315.824836
20
3680.629605
30
0
42
0.45
0
VERTEX
8
QC_MINOR
10
2447.413495
20
3615.106238
30
0
42
0.45
0
VERTEX
8
QC_MINOR
10
2593.786034
20
3601.542825
30
0
42
0.45
0
VERTEX
8
QC_MINOR
10
2735.174033
20
3641.771179
30
0
42
0.45
0
VERTEX
8
QC_MINOR
10
2852.482258
20
3730.358238
30
0
42
0.45
0
VERTEX
8
QC_MINOR
10
2929.867582
20
3855.339829
30
0
42
0.45
0
SEQEND
8
QC_MINOR
0
TEXT
8
QC_LABELS
10
2856.878691
20
4299.836496
30
0
40
180
1
L02-MDL-001 [Minor]
0
TEXT
8
QC_MINOR
10
2856.878691
20
4011.836496
30
0
40
144
1
Type 'Brick 230' is actually 200 mm wide
0
TEXT
8
QC_MINOR
10
2856.878691
20
3759.836496
30
0
40
126
1
CAD: - | Revit: Brick 230: 200 mm
0
POLYLINE
8
QC_MINOR
66
1
10
0
20
0
30
0
70
1
40
25
41
25
0
VERTEX
8
QC_MINOR
10
2100
20
3000
30
0
42
0.45
0
VERTEX
8
QC_MINOR
10
2039.225006
20
3325.1175
30
0
42
0.45
0
VERTEX
8
QC_MINOR
10
1865.108025
20
3606.326079
30
0
42
0.45
0
VERTEX
8
QC_MINOR
10
1601.16452
20
3805.646962
30
0
42
0.45
0
VERTEX
8
QC_MINOR
10
1283.041524
20
3896.160759
30
0
42
0.45
0
VERTEX
8
QC_MINOR
10
953.703309
20
3865.643079
30
0
42
0.45
0
VERTEX
8
QC_MINOR
10
657.628827
20
3718.215505
30
0
42
0.45
0
VERTEX
8
QC_MINOR
10
434.804578
20
3473.788947
30
0
42
0.45
0
VERTEX
8
QC_MINOR
10
315.32421
20
3165.374566
30
0
42
0.45
0
VERTEX
8
QC_MINOR
10
315.32421
20
2834.625434
30
0
42
0.45
0
VERTEX
8
QC_MINOR
10
434.804578
20
2526.211053
30
0
42
0.45
0
VERTEX
8
QC_MINOR
10
657.628827
20
2281.784495
30
0
42
0.45
0
VERTEX
8
QC_MINOR
10
953.703309
20
2134.356921
30
0
42
0.45
0
VERTEX
8
QC_MINOR
10
1283.041524
20
2103.839241
30
0
42
0.45
0
VERTEX
8
QC_MINOR
10
1601.16452
20
2194.353038
30
0
42
0.45
0
VERTEX
8
QC_MINOR
10
1865.108025
20
2393.673921
30
0
42
0.45
0
VERTEX
8
QC_MINOR
10
2039.225006
20
2674.8825
30
0
42
0.45
0
SEQEND
8
QC_MINOR
0
TEXT
8
QC_LABELS
10
1875
20
3675
30
0
40
180
1
L02-RM-001 [Minor]
0
TEXT
8
QC_MINOR
10
1875
20
3387
30
0
40
144
1
Room name: CAD 'KITCHEN' vs Revit 'Dining'
0
TEXT
8
QC_MINOR
10
1875
20
3135
30
0
40
126
1
CAD: KITCHEN | Revit: 202 Dining
0
POLYLINE
8
QC_REVIT_WALLS
66
1
10
0
20
0
30
0
70
1
0
VERTEX
8
QC_REVIT_WALLS
10
114.723551
20
229.613091
30
0
0
VERTEX
8
QC_REVIT_WALLS
10
9884.72351
20
230.506774
30
0
0
VERTEX
8
QC_REVIT_WALLS
10
9884.744549
20
0.506775
30
0
0
VERTEX
8
QC_REVIT_WALLS
10
114.744589
20
-0.386908
30
0
0
SEQEND
8
QC_REVIT_WALLS
0
POLYLINE
8
QC_REVIT_WALLS
66
1
10
0
20
0
30
0
70
1
0
VERTEX
8
QC_REVIT_WALLS
10
9769.73403
20
115.496255
30
0
0
VERTEX
8
QC_REVIT_WALLS
10
9769.023291
20
7885.496222
30
0
0
VERTEX
8
QC_REVIT_WALLS
10
9999.02329
20
7885.517261
30
0
0
VERTEX
8
QC_REVIT_WALLS
10
9999.734029
20
115.517293
30
0
0
SEQEND
8
QC_REVIT_WALLS
0
POLYLINE
8
QC_REVIT_WALLS
66
1
10
0
20
0
30
0
70
1
0
VERTEX
8
QC_REVIT_WALLS
10
9884.03381
20
7770.506742
30
0
0
VERTEX
8
QC_REVIT_WALLS
10
114.033851
20
7769.613059
30
0
0
VERTEX
8
QC_REVIT_WALLS
10
114.012812
20
7999.613058
30
0
0
VERTEX
8
QC_REVIT_WALLS
10
9884.012771
20
8000.506741
30
0
0
SEQEND
8
QC_REVIT_WALLS
0
POLYLINE
8
QC_REVIT_WALLS
66
1
10
0
20
0
30
0
70
1
0
VERTEX
8
QC_REVIT_WALLS
10
229.023331
20
7884.623578
30
0
0
VERTEX
8
QC_REVIT_WALLS
10
229.73407
20
114.62361
30
0
0
VERTEX
8
QC_REVIT_WALLS
10
-0.265929
20
114.602572
30
0
0
VERTEX
8
QC_REVIT_WALLS
10
-0.976668
20
7884.602539
30
0
0
SEQEND
8
QC_REVIT_WALLS
0
POLYLINE
8
QC_REVIT_WALLS
66
1
10
0
20
0
30
0
70
1
0
VERTEX
8
QC_REVIT_WALLS
10
4942.23405
20
115.054673
30
0
0
VERTEX
8
QC_REVIT_WALLS
10
4941.523311
20
7885.05464
30
0
0
VERTEX
8
QC_REVIT_WALLS
10
5056.523311
20
7885.06516
30
0
0
VERTEX
8
QC_REVIT_WALLS
10
5057.234049
20
115.065192
30
0
0
SEQEND
8
QC_REVIT_WALLS
0
POLYLINE
8
QC_REVIT_WALLS
66
1
10
0
20
0
30
0
70
1
0
VERTEX
8
QC_REVIT_WALLS
10
114.369554
20
4099.613074
30
0
0
VERTEX
8
QC_REVIT_WALLS
10
4999.369533
20
4100.059916
30
0
0
VERTEX
8
QC_REVIT_WALLS
10
4999.387828
20
3900.059917
30
0
0
VERTEX
8
QC_REVIT_WALLS
10
114.387848
20
3899.613075
30
0
0
SEQEND
8
QC_REVIT_WALLS
0
POLYLINE
8
QC_REVIT_WALLS
66
1
10
0
20
0
30
0
70
1
0
VERTEX
8
QC_REVIT_WALLS
10
7442.23404
20
115.283353
30
0
0
VERTEX
8
QC_REVIT_WALLS
10
7441.970142
20
3000.283341
30
0
0
VERTEX
8
QC_REVIT_WALLS
10
7556.970142
20
3000.293861
30
0
0
VERTEX
8
QC_REVIT_WALLS
10
7557.234039
20
115.293873
30
0
0
SEQEND
8
QC_REVIT_WALLS
0
POLYLINE
8
QC_REVIT_COLUMNS
66
1
10
0
20
0
30
0
70
1
0
VERTEX
8
QC_REVIT_COLUMNS
10
2349.582217
20
1774.817524
30
0
0
VERTEX
8
QC_REVIT_COLUMNS
10
2649.582216
20
1774.844966
30
0
0
VERTEX
8
QC_REVIT_COLUMNS
10
2649.541053
20
2224.844964
30
0
0
VERTEX
8
QC_REVIT_COLUMNS
10
2349.541055
20
2224.817523
30
0
0
SEQEND
8
QC_REVIT_COLUMNS
0
POLYLINE
8
QC_REVIT_COLUMNS
66
1
10
0
20
0
30
0
70
1
0
VERTEX
8
QC_REVIT_COLUMNS
10
7409.575335
20
1850.280373
30
0
0
VERTEX
8
QC_REVIT_COLUMNS
10
7709.575334
20
1850.307815
30
0
0
VERTEX
8
QC_REVIT_COLUMNS
10
7709.547893
20
2150.307814
30
0
0
VERTEX
8
QC_REVIT_COLUMNS
10
7409.547894
20
2150.280372
30
0
0
SEQEND
8
QC_REVIT_COLUMNS
0
CIRCLE
8
QC_REVIT_OPENINGS
10
4999.611934
20
1450.059927
30
0
40
500
0
ENDSEC
0
EOF
