0
SECTION
2
HEADER
9
$ACADVER
1
AC1015
9
$INSUNITS
70
4
0
ENDSEC
0
SECTION
2
TABLES
0
TABLE
2
LAYER
70
12
0
LAYER
2
0
70
0
62
7
6
CONTINUOUS
0
LAYER
2
A-WALL
70
0
62
7
6
CONTINUOUS
0
LAYER
2
A-ANNO-TEXT
70
0
62
7
6
CONTINUOUS
0
LAYER
2
A-DOOR
70
0
62
7
6
CONTINUOUS
0
LAYER
2
A-DOOR-IDEN
70
0
62
7
6
CONTINUOUS
0
LAYER
2
A-GLAZ
70
0
62
7
6
CONTINUOUS
0
LAYER
2
A-GLAZ-IDEN
70
0
62
7
6
CONTINUOUS
0
LAYER
2
S-COLS
70
0
62
7
6
CONTINUOUS
0
LAYER
2
S-GRID
70
0
62
7
6
CONTINUOUS
0
LAYER
2
A-AREA-IDEN
70
0
62
7
6
CONTINUOUS
0
LAYER
2
A-ANNO-DIMS
70
0
62
7
6
CONTINUOUS
0
LAYER
2
A-ANNO-TTLB
70
0
62
7
6
CONTINUOUS
0
ENDTAB
0
ENDSEC
0
SECTION
2
BLOCKS
0
BLOCK
8
0
2
DOOR_SINGLE
70
0
10
0
20
0
30
0
3
DOOR_SINGLE
0
LINE
5
113
8
0
10
0
20
0
30
0
11
0
21
900
31
0
0
ARC
5
114
8
0
10
0
20
0
30
0
40
900
50
0
51
90
0
ENDBLK
8
0
0
BLOCK
8
0
2
WIN_1200
70
0
10
0
20
0
30
0
3
WIN_1200
0
LINE
5
117
8
0
10
-600
20
-115
30
0
11
600
21
-115
31
0
0
LINE
5
118
8
0
10
-600
20
0
30
0
11
600
21
0
31
0
0
LINE
5
119
8
0
10
-600
20
115
30
0
11
600
21
115
31
0
0
LINE
5
11A
8
0
10
-600
20
-115
30
0
11
-600
21
115
31
0
0
LINE
5
11B
8
0
10
600
20
-115
30
0
11
600
21
115
31
0
0
ENDBLK
8
0
0
ENDSEC
0
SECTION
2
ENTITIES
0
LINE
5
100
8
A-WALL
10
0
20
0
30
0
11
7000
21
0
31
0
0
LINE
5
101
8
A-WALL
10
8200
20
0
30
0
11
10000
21
0
31
0
0
LINE
5
102
8
A-WALL
10
230
20
230
30
0
11
7000
21
230
31
0
0
LINE
5
103
8
A-WALL
10
8200
20
230
30
0
11
9770
21
230
31
0
0
LINE
5
104
8
A-WALL
10
10000
20
0
30
0
11
10000
21
8000
31
0
0
LINE
5
105
8
A-WALL
10
9770
20
230
30
0
11
9770
21
7770
31
0
0
LINE
5
106
8
A-WALL
10
10000
20
8000
30
0
11
0
21
8000
31
0
0
LINE
5
107
8
A-WALL
10
9770
20
7770
30
0
11
230
21
7770
31
0
0
LINE
5
108
8
A-WALL
10
0
20
8000
30
0
11
0
21
0
31
0
0
LINE
5
109
8
A-WALL
10
230
20
7770
30
0
11
230
21
230
31
0
0
LINE
5
10A
8
A-WALL
10
4942.5
20
230
30
0
11
4942.5
21
1000
31
0
0
LINE
5
10B
8
A-WALL
10
4942.5
20
1900
30
0
11
4942.5
21
7770
31
0
0
LINE
5
10C
8
A-WALL
10
5057.5
20
230
30
0
11
5057.5
21
1000
31
0
0
LINE
5
10D
8
A-WALL
10
5057.5
20
1900
30
0
11
5057.5
21
7770
31
0
0
LINE
5
10E
8
A-WALL
10
230
20
3885
30
0
11
4942.5
21
3885
31
0
0
LINE
5
10F
8
A-WALL
10
230
20
4115
30
0
11
4942.5
21
4115
31
0
0
TEXT
5
110
8
A-ANNO-TEXT
10
1500
20
4250
30
0
40
120
1
230 THK. BRICK WALL
50
0
0
LINE
5
111
8
A-WALL
10
5057.5
20
5942.5
30
0
11
9770
21
5942.5
31
0
0
LINE
5
112
8
A-WALL
10
5057.5
20
6057.5
30
0
11
9770
21
6057.5
31
0
0
INSERT
5
115
8
A-DOOR
2
DOOR_SINGLE
10
5000
20
1000
30
0
41
1
42
1
50
90
0
TEXT
5
116
8
A-DOOR-IDEN
10
5300
20
1450
30
0
40
150
1
D1
50
0
0
INSERT
5
11C
8
A-GLAZ
2
WIN_1200
10
7600
20
115
30
0
41
1
42
1
50
0
0
TEXT
5
11D
8
A-GLAZ-IDEN
10
7600
20
-500
30
0
40
150
1
W1
50
0
0
LWPOLYLINE
5
11E
8
S-COLS
90
4
70
1
10
2350
20
1775
10
2650
20
1775
10
2650
20
2225
10
2350
20
2225
0
LWPOLYLINE
5
11F
8
S-COLS
90
4
70
1
10
7350
20
1850
10
7650
20
1850
10
7650
20
2150
10
7350
20
2150
0
LINE
5
120
8
S-GRID
10
115
20
-2000
30
0
11
115
21
10000
31
0
0
CIRCLE
5
121
8
S-GRID
10
115
20
10400
30
0
40
400
0
TEXT
5
122
8
S-GRID
10
115
20
10400
30
0
40
300
1
1
50
0
0
LINE
5
123
8
S-GRID
10
9885
20
-2000
30
0
11
9885
21
10000
31
0
0
CIRCLE
5
124
8
S-GRID
10
9885
20
10400
30
0
40
400
0
TEXT
5
125
8
S-GRID
10
9885
20
10400
30
0
40
300
1
2
50
0
0
LINE
5
126
8
S-GRID
10
-2000
20
115
30
0
11
12000
21
115
31
0
0
CIRCLE
5
127
8
S-GRID
10
-2400
20
115
30
0
40
400
0
TEXT
5
128
8
S-GRID
10
-2400
20
115
30
0
40
300
1
A
50
0
0
LINE
5
129
8
S-GRID
10
-2000
20
7885
30
0
11
12000
21
7885
31
0
0
CIRCLE
5
12A
8
S-GRID
10
-2400
20
7885
30
0
40
400
0
TEXT
5
12B
8
S-GRID
10
-2400
20
7885
30
0
40
300
1
B
50
0
0
TEXT
5
12C
8
A-AREA-IDEN
10
2000
20
6000
30
0
40
200
1
BEDROOM
50
0
0
TEXT
5
12D
8
A-AREA-IDEN
10
2000
20
5600
30
0
40
150
1
4700 X 3650
50
0
0
TEXT
5
12E
8
A-AREA-IDEN
10
1200
20
3000
30
0
40
200
1
KITCHEN
50
0
0
DIMENSION
5
12F
8
A-ANNO-DIMS
2
*D1
10
1000
20
4615
30
0
11
1000
21
4715
31
0
70
32
1

42
230
13
1000
23
3885
33
0
14
1000
24
4115
34
0
50
90
0
TEXT
5
130
8
A-ANNO-TTLB
10
3000
20
-3500
30
0
40
400
1
SECOND FLOOR PLAN
50
0
0
ENDSEC
0
EOF
